<svg width="218" height="217" viewBox="0 0 218 217" fill="none" xmlns="http://www.w3.org/2000/svg">
<path fill-rule="evenodd" clip-rule="evenodd" d="M93.3181 1.19527C81.4401 3.06827 73.7971 5.25727 64.5831 9.42827C43.2711 19.0733 27.1711 33.2073 15.5171 52.5033C5.78014 68.6233 1.05314 84.2173 0.129142 103.263C-2.11186 149.495 24.9811 191.442 68.3181 208.841C76.9741 212.315 79.6281 212.994 93.3181 215.23C137.437 222.437 183.829 198.963 204.681 158.883C214.975 139.095 219.192 118.484 216.992 98.7003C212.761 60.6533 190.878 28.4013 158.071 11.8603C137.79 1.63427 114.677 -2.17173 93.3181 1.19527ZM158.504 72.9103C159.776 74.1063 160.818 75.5713 160.818 76.1663C160.818 76.7603 144.619 93.4403 124.821 113.233L88.8241 149.219L72.3251 132.743L55.8261 116.267L58.8251 113.268L61.8231 110.269L75.3271 123.745L88.8301 137.22L122.072 103.978C140.355 85.6953 155.511 70.7363 155.752 70.7363C155.992 70.7363 157.231 71.7143 158.504 72.9103Z" fill="#29D13A"/>
</svg>
