<svg width="252" height="250" viewBox="0 0 252 250" fill="none" xmlns="http://www.w3.org/2000/svg">
<mask id="mask0_47_1612" style="mask-type:luminance" maskUnits="userSpaceOnUse" x="0" y="0" width="252" height="250">
<path fill-rule="evenodd" clip-rule="evenodd" d="M0 0.196289H251.67V249.102H0V0.196289Z" fill="white"/>
</mask>
<g mask="url(#mask0_47_1612)">
<path fill-rule="evenodd" clip-rule="evenodd" d="M7.80067 128.641C30.4487 74.992 12.9661 7.84571 87.3227 8.09419C147.068 8.29393 175.59 22.403 217.506 45.8167C258.069 68.4754 259.216 133.302 202.198 191.732C145.18 250.163 102.415 248.493 81.4525 235.138C60.4909 221.781 -8.38248 166.98 7.80067 128.641Z" fill="#F4F5F7"/>
</g>
<path fill-rule="evenodd" clip-rule="evenodd" d="M166.003 49.4021C198.268 29.4456 208.974 12.9212 215.507 24.2624C219.928 31.9396 174.966 86.719 166.003 92.5516C163.315 64.8221 166.003 49.4021 166.003 49.4021Z" fill="white"/>
<path fill-rule="evenodd" clip-rule="evenodd" d="M166.003 49.4021C198.268 29.4456 208.974 12.9212 215.507 24.2624C219.928 31.9396 174.966 86.719 166.003 92.5516C163.315 64.8221 166.003 49.4021 166.003 49.4021Z" stroke="#0A0F37" stroke-width="2"/>
<path fill-rule="evenodd" clip-rule="evenodd" d="M76.5703 133.115C79.4555 69.0836 79.4555 36.1267 81.3778 23.8852C83.3013 11.6451 89.0717 5.99526 110.228 5.05342C131.383 4.11158 149.654 0.344208 163.116 0.344208C176.579 0.344208 188.119 -1.53822 188.119 34.2442C188.119 70.0254 180.978 194.776 180.978 203.251C180.978 211.727 182.895 233.01 159.817 233.01C136.738 233.01 115.815 232.678 98.2992 235.2C82.0891 237.533 76.5703 229.161 76.5703 205.62V133.115Z" fill="#0A1236"/>
<path fill-rule="evenodd" clip-rule="evenodd" d="M76.0874 128.241C78.777 66.5603 78.777 34.8125 80.5685 23.0212C82.3612 11.2286 87.7392 5.78684 107.456 4.87904C127.173 3.9725 144.202 0.343821 156.751 0.343821C169.298 0.343821 180.053 -1.46926 180.053 32.9981C180.053 67.4681 172.882 203.528 172.882 211.693C172.882 219.856 172.882 227.112 151.372 227.112C129.863 227.112 111.896 226.033 96.6602 226.939C81.4231 227.846 76.0874 220.764 76.0874 198.087V128.241Z" fill="#FFD428"/>
<path fill-rule="evenodd" clip-rule="evenodd" d="M88.1868 31.2135L174.225 25.7717L166.16 197.208L81.9131 201.744L88.1868 31.2135Z" fill="white"/>
<path fill-rule="evenodd" clip-rule="evenodd" d="M130.39 213.442C130.39 217.514 127.128 220.817 123.102 220.817C119.077 220.817 115.816 217.514 115.816 213.442C115.816 209.368 119.077 206.064 123.102 206.064C127.128 206.064 130.39 209.368 130.39 213.442Z" fill="white"/>
<path fill-rule="evenodd" clip-rule="evenodd" d="M88.1238 31.5925L81.812 200.659L166.57 196.163L174.684 26.1975L88.1238 31.5925Z" fill="white"/>
<mask id="mask1_47_1612" style="mask-type:luminance" maskUnits="userSpaceOnUse" x="81" y="26" width="94" height="175">
<path fill-rule="evenodd" clip-rule="evenodd" d="M88.1238 31.5925L81.812 200.659L166.57 196.163L174.684 26.1975L88.1238 31.5925Z" fill="white"/>
</mask>
<g mask="url(#mask1_47_1612)">
</g>
<path fill-rule="evenodd" clip-rule="evenodd" d="M40.1587 224.359C52.9947 214.374 75.58 189.196 68.2784 150.802C60.9756 112.405 55.4499 108.281 64.7153 94.0294C73.9808 79.7764 83.2713 58.2807 90.6757 73.1324C98.0787 87.9841 90.9777 114.753 79.4827 118.304C89.1943 127.556 126.499 160.767 101.445 193.058C85.3029 211.121 68.6594 207.319 64.3281 241.821C62.3579 240.541 40.1587 224.359 40.1587 224.359Z" fill="white"/>
<path d="M40.1587 224.359C52.9947 214.374 75.58 189.196 68.2784 150.802C60.9756 112.405 55.4499 108.281 64.7153 94.0294C73.9808 79.7764 83.2713 58.2807 90.6757 73.1324C98.0787 87.9841 90.9777 114.753 79.4827 118.304C89.1943 127.556 126.499 160.767 101.445 193.058C85.3029 211.121 70.2348 205.447 64.3281 241.821" stroke="#0A0F37" stroke-width="2"/>
<path fill-rule="evenodd" clip-rule="evenodd" d="M185.879 93.3442C177.357 102.762 155.631 117.868 145.593 124.64C134.925 131.839 139.905 139.953 163.993 131.671C177.779 126.931 187.352 121.061 190.273 114.54C195.142 103.669 185.879 93.3442 185.879 93.3442Z" fill="white"/>
<path fill-rule="evenodd" clip-rule="evenodd" d="M185.879 93.3442C177.357 102.762 155.631 117.868 145.593 124.64C134.925 131.839 139.905 139.953 163.993 131.671C177.779 126.931 187.352 121.061 190.273 114.54C195.142 103.669 185.879 93.3442 185.879 93.3442Z" stroke="#0A0F37" stroke-width="2"/>
<path fill-rule="evenodd" clip-rule="evenodd" d="M184.625 121.323C176.384 127.798 158.682 135.165 146.798 135.157C139.957 138.702 135.144 147.686 147.785 147.086C160.424 146.485 183.305 146.88 188.789 129.607C192.311 118.517 190.165 114.817 189.675 115.701C188.472 117.868 186.655 119.728 184.625 121.323Z" fill="white"/>
<path fill-rule="evenodd" clip-rule="evenodd" d="M184.625 121.323C176.384 127.798 158.682 135.165 146.798 135.157C139.957 138.702 135.144 147.686 147.785 147.086C160.424 146.485 183.305 146.88 188.789 129.607C192.311 118.517 190.165 114.817 189.675 115.701C188.472 117.868 186.655 119.728 184.625 121.323Z" stroke="#0A0F37" stroke-width="2"/>
<path fill-rule="evenodd" clip-rule="evenodd" d="M152.966 146.892C170.002 146.903 180.639 141.787 184.75 136.824C189.83 138.126 188.119 152.914 170.365 154.169C151.285 155.516 152.966 146.892 152.966 146.892Z" fill="white"/>
<path fill-rule="evenodd" clip-rule="evenodd" d="M152.966 146.892C170.002 146.903 180.639 141.787 184.75 136.824C189.83 138.126 188.119 152.914 170.365 154.169C151.285 155.516 152.966 146.892 152.966 146.892Z" stroke="#0A0F37" stroke-width="2"/>
<path fill-rule="evenodd" clip-rule="evenodd" d="M148.115 76.1449C148.115 86.9229 139.389 95.6602 128.626 95.6602C117.863 95.6602 109.138 86.9229 109.138 76.1449C109.138 65.367 117.863 56.6296 128.626 56.6296C139.389 56.6296 148.115 65.367 148.115 76.1449Z" fill="#E8BC05"/>
<path fill-rule="evenodd" clip-rule="evenodd" d="M142.866 76.1449C142.866 86.9229 139.39 95.6602 128.627 95.6602C117.864 95.6602 109.139 86.9229 109.139 76.1449C109.139 65.367 117.864 56.6296 128.627 56.6296C139.39 56.6296 142.866 65.367 142.866 76.1449Z" fill="#FFD428"/>
<path d="M138.545 65.5715L141.478 68.1638L127.451 84.3545L116.183 75.4908L118.577 72.385L126.942 78.9645L138.545 65.5715Z" fill="#0A0F37"/>
<path fill-rule="evenodd" clip-rule="evenodd" d="M107.179 106.781C107.287 106.712 107.451 106.644 107.672 106.577C107.893 106.51 108.116 106.473 108.342 106.465C108.665 106.453 108.952 106.491 109.204 106.577C109.456 106.664 109.621 106.807 109.699 107.008C109.827 107.345 109.967 107.738 110.119 108.185C110.27 108.633 110.422 109.096 110.574 109.573C110.727 110.05 110.876 110.521 111.021 110.985C111.167 111.45 111.294 111.86 111.404 112.218C111.33 112.312 111.216 112.39 111.063 112.451C110.91 112.512 110.727 112.547 110.514 112.554C110.359 112.559 110.227 112.551 110.12 112.528C110.012 112.506 109.924 112.47 109.854 112.42C109.785 112.369 109.727 112.302 109.682 112.219C109.637 112.135 109.597 112.038 109.561 111.927L109.363 111.255L107.609 111.316C107.565 111.515 107.52 111.72 107.476 111.931C107.431 112.143 107.387 112.348 107.342 112.547C107.253 112.583 107.159 112.614 107.059 112.64C106.96 112.667 106.839 112.682 106.697 112.687C106.368 112.699 106.122 112.65 105.96 112.541C105.798 112.431 105.713 112.275 105.706 112.072C105.703 111.98 105.712 111.888 105.735 111.795C105.758 111.702 105.783 111.593 105.811 111.468C105.85 111.289 105.905 111.067 105.977 110.802C106.048 110.537 106.127 110.25 106.213 109.942C106.3 109.633 106.392 109.317 106.491 108.992C106.589 108.666 106.682 108.359 106.769 108.071C106.856 107.782 106.936 107.525 107.008 107.299C107.081 107.073 107.138 106.901 107.179 106.781ZM108.386 108.009C108.305 108.288 108.214 108.598 108.113 108.94C108.012 109.281 107.922 109.628 107.844 109.978L109.045 109.936C108.942 109.585 108.838 109.243 108.733 108.908C108.627 108.574 108.531 108.274 108.444 108.007L108.386 108.009ZM114.456 108.703C114.294 108.709 114.142 108.741 113.999 108.798C113.855 108.856 113.732 108.937 113.629 109.043C113.526 109.148 113.445 109.277 113.385 109.43C113.326 109.583 113.3 109.762 113.307 109.965C113.321 110.371 113.447 110.672 113.683 110.868C113.919 111.063 114.202 111.155 114.531 111.143C114.725 111.137 114.892 111.108 115.033 111.057C115.173 111.006 115.297 110.952 115.405 110.896C115.538 110.983 115.638 111.08 115.706 111.186C115.775 111.292 115.812 111.42 115.817 111.571C115.826 111.84 115.708 112.053 115.461 112.209C115.214 112.365 114.868 112.451 114.422 112.467C114.016 112.481 113.645 112.433 113.312 112.323C112.978 112.214 112.69 112.053 112.446 111.841C112.203 111.63 112.011 111.372 111.871 111.069C111.732 110.765 111.655 110.426 111.642 110.053C111.627 109.62 111.683 109.239 111.811 108.909C111.938 108.58 112.118 108.306 112.349 108.088C112.581 107.869 112.851 107.702 113.161 107.587C113.47 107.471 113.8 107.407 114.148 107.395C114.613 107.378 114.975 107.451 115.232 107.613C115.49 107.774 115.624 107.99 115.633 108.259C115.638 108.383 115.613 108.501 115.558 108.611C115.504 108.721 115.439 108.817 115.365 108.898C115.253 108.85 115.119 108.803 114.962 108.76C114.805 108.716 114.637 108.697 114.456 108.703ZM118.973 108.546C118.812 108.551 118.659 108.583 118.516 108.641C118.372 108.698 118.249 108.779 118.146 108.885C118.043 108.99 117.962 109.119 117.903 109.273C117.843 109.426 117.817 109.604 117.824 109.807C117.839 110.214 117.964 110.515 118.2 110.71C118.437 110.905 118.719 110.997 119.049 110.986C119.242 110.979 119.41 110.95 119.55 110.899C119.69 110.848 119.815 110.795 119.923 110.738C120.055 110.826 120.155 110.922 120.224 111.028C120.292 111.134 120.329 111.263 120.334 111.413C120.344 111.682 120.225 111.895 119.978 112.051C119.731 112.208 119.385 112.293 118.94 112.309C118.533 112.323 118.163 112.275 117.829 112.166C117.496 112.056 117.207 111.895 116.964 111.684C116.72 111.472 116.529 111.215 116.389 110.911C116.249 110.607 116.172 110.269 116.159 109.895C116.144 109.462 116.2 109.081 116.328 108.751C116.455 108.422 116.635 108.148 116.867 107.93C117.098 107.712 117.369 107.545 117.678 107.429C117.988 107.313 118.317 107.249 118.666 107.237C119.131 107.221 119.492 107.293 119.75 107.455C120.008 107.617 120.141 107.832 120.151 108.101C120.155 108.225 120.13 108.343 120.076 108.453C120.021 108.563 119.957 108.659 119.882 108.741C119.77 108.692 119.636 108.646 119.479 108.602C119.323 108.558 119.154 108.539 118.973 108.546ZM123.457 112.161C123.076 112.174 122.721 112.133 122.391 112.036C122.061 111.939 121.771 111.787 121.522 111.579C121.272 111.371 121.072 111.105 120.922 110.782C120.771 110.459 120.689 110.078 120.673 109.639C120.658 109.206 120.715 108.831 120.843 108.515C120.97 108.199 121.144 107.936 121.363 107.729C121.582 107.521 121.835 107.364 122.122 107.259C122.41 107.154 122.705 107.096 123.009 107.085C123.351 107.073 123.664 107.115 123.949 107.21C124.233 107.305 124.481 107.441 124.69 107.617C124.9 107.794 125.066 108.008 125.188 108.26C125.31 108.512 125.376 108.788 125.387 109.09C125.395 109.313 125.339 109.486 125.221 109.608C125.102 109.73 124.934 109.812 124.715 109.852L122.335 110.3C122.414 110.513 122.565 110.671 122.788 110.771C123.012 110.872 123.265 110.917 123.549 110.907C123.814 110.898 124.063 110.855 124.297 110.778C124.53 110.701 124.719 110.614 124.864 110.517C124.97 110.579 125.06 110.667 125.136 110.783C125.211 110.898 125.251 111.022 125.255 111.153C125.265 111.448 125.138 111.672 124.871 111.826C124.669 111.945 124.439 112.028 124.182 112.077C123.925 112.125 123.683 112.153 123.457 112.161ZM123.051 108.305C122.896 108.31 122.763 108.341 122.652 108.398C122.541 108.454 122.451 108.524 122.383 108.609C122.315 108.693 122.265 108.787 122.233 108.89C122.201 108.993 122.183 109.097 122.181 109.202L123.827 108.869C123.803 108.738 123.728 108.61 123.601 108.483C123.473 108.356 123.29 108.297 123.051 108.305ZM128.194 106.904C128.582 106.891 128.944 106.929 129.28 107.019C129.616 107.109 129.907 107.255 130.153 107.456C130.4 107.658 130.596 107.915 130.743 108.228C130.889 108.542 130.97 108.918 130.986 109.357C131 109.777 130.955 110.146 130.85 110.465C130.745 110.784 130.589 111.054 130.384 111.274C130.178 111.495 129.927 111.663 129.63 111.778C129.334 111.894 129.001 111.958 128.633 111.971C128.355 111.98 128.096 111.947 127.854 111.87L127.911 113.503C127.847 113.525 127.744 113.549 127.603 113.577C127.462 113.605 127.317 113.622 127.168 113.627C127.026 113.632 126.898 113.627 126.785 113.611C126.671 113.595 126.574 113.559 126.495 113.503C126.415 113.446 126.354 113.368 126.312 113.268C126.27 113.168 126.246 113.035 126.24 112.872L126.075 108.15C126.069 107.973 126.101 107.827 126.171 107.713C126.242 107.599 126.34 107.494 126.466 107.398C126.661 107.26 126.906 107.146 127.201 107.057C127.495 106.968 127.826 106.917 128.194 106.904ZM128.345 110.661C129.01 110.638 129.329 110.223 129.3 109.416C129.286 108.996 129.193 108.688 129.021 108.49C128.849 108.293 128.608 108.199 128.298 108.21C128.175 108.215 128.066 108.233 127.97 108.266C127.875 108.299 127.792 108.336 127.722 108.378L127.798 110.542C127.877 110.579 127.962 110.609 128.053 110.632C128.144 110.655 128.242 110.665 128.345 110.661ZM133.388 110.012C133.394 110.183 133.452 110.302 133.561 110.37C133.67 110.439 133.821 110.47 134.015 110.463C134.112 110.46 134.212 110.448 134.314 110.428C134.417 110.408 134.507 110.383 134.583 110.354C134.644 110.425 134.697 110.503 134.742 110.59C134.787 110.677 134.812 110.783 134.816 110.908C134.825 111.157 134.74 111.363 134.561 111.527C134.383 111.691 134.061 111.781 133.596 111.797C133.028 111.817 132.586 111.701 132.27 111.45C131.954 111.198 131.786 110.777 131.765 110.187L131.618 105.977C131.688 105.955 131.789 105.93 131.921 105.902C132.052 105.875 132.193 105.858 132.341 105.853C132.625 105.843 132.848 105.886 133.01 105.982C133.172 106.079 133.258 106.291 133.27 106.618L133.292 107.248L134.561 107.204C134.602 107.274 134.642 107.363 134.681 107.47C134.721 107.577 134.743 107.696 134.747 107.827C134.755 108.057 134.711 108.224 134.614 108.329C134.518 108.435 134.386 108.49 134.218 108.496L133.336 108.527L133.388 110.012ZM138.446 105.512C138.517 105.496 138.629 105.474 138.783 105.446C138.937 105.418 139.085 105.401 139.227 105.396C139.376 105.391 139.507 105.398 139.621 105.417C139.735 105.436 139.831 105.473 139.911 105.53C139.991 105.586 140.052 105.666 140.094 105.77C140.136 105.873 140.161 106.01 140.166 106.181L140.294 109.82C140.314 110.404 140.165 110.847 139.845 111.151C139.526 111.454 139.047 111.617 138.408 111.639C138.072 111.651 137.799 111.608 137.589 111.51C137.438 111.443 137.326 111.349 137.254 111.226C137.182 111.104 137.143 110.964 137.137 110.807C137.133 110.676 137.147 110.56 137.179 110.461C137.211 110.361 137.252 110.281 137.301 110.22C137.425 110.242 137.53 110.256 137.618 110.263C137.705 110.27 137.801 110.272 137.904 110.268C138.156 110.259 138.334 110.189 138.44 110.057C138.545 109.926 138.593 109.735 138.585 109.486L138.446 105.512ZM146.168 108.817C146.182 109.224 146.134 109.588 146.022 109.911C145.911 110.233 145.747 110.506 145.532 110.73C145.317 110.955 145.056 111.128 144.75 111.25C144.444 111.372 144.1 111.44 143.719 111.454C143.338 111.467 142.991 111.42 142.677 111.313C142.363 111.206 142.09 111.046 141.86 110.834C141.629 110.622 141.447 110.361 141.314 110.05C141.18 109.74 141.106 109.388 141.093 108.995C141.079 108.608 141.128 108.255 141.24 107.936C141.352 107.617 141.515 107.343 141.73 107.116C141.945 106.888 142.206 106.71 142.512 106.581C142.817 106.452 143.161 106.381 143.542 106.368C143.923 106.355 144.27 106.403 144.585 106.514C144.899 106.624 145.171 106.786 145.402 106.997C145.632 107.209 145.814 107.471 145.948 107.781C146.081 108.092 146.155 108.437 146.168 108.817ZM142.778 108.936C142.792 109.336 142.879 109.64 143.038 109.847C143.197 110.055 143.412 110.154 143.683 110.145C143.955 110.136 144.159 110.02 144.297 109.799C144.435 109.577 144.497 109.27 144.483 108.876C144.469 108.483 144.384 108.182 144.228 107.974C144.072 107.766 143.859 107.667 143.587 107.676C143.316 107.686 143.11 107.8 142.969 108.018C142.828 108.236 142.764 108.542 142.778 108.936ZM146.777 104.778C146.841 104.756 146.944 104.731 147.085 104.703C147.226 104.675 147.371 104.659 147.52 104.653C147.662 104.648 147.79 104.654 147.903 104.67C148.017 104.685 148.114 104.721 148.193 104.778C148.273 104.834 148.334 104.912 148.376 105.013C148.418 105.113 148.442 105.245 148.448 105.409L148.482 106.373C148.641 106.302 148.793 106.25 148.937 106.219C149.082 106.188 149.241 106.169 149.415 106.163C149.725 106.152 150.021 106.198 150.303 106.299C150.584 106.401 150.835 106.555 151.056 106.761C151.276 106.966 151.453 107.224 151.587 107.535C151.721 107.845 151.795 108.207 151.809 108.62C151.824 109.047 151.774 109.421 151.659 109.743C151.544 110.066 151.378 110.336 151.159 110.554C150.94 110.771 150.67 110.94 150.348 111.06C150.025 111.179 149.667 111.246 149.273 111.26C148.847 111.275 148.484 111.236 148.183 111.145C147.882 111.054 147.626 110.936 147.414 110.793C147.123 110.599 146.972 110.342 146.961 110.021L146.777 104.778ZM149.227 109.942C149.524 109.931 149.751 109.82 149.909 109.608C150.066 109.395 150.138 109.086 150.124 108.679C150.109 108.266 150.015 107.961 149.84 107.763C149.665 107.566 149.435 107.472 149.151 107.482C149.022 107.487 148.911 107.504 148.818 107.533C148.725 107.563 148.625 107.605 148.517 107.662L148.592 109.806C148.665 109.85 148.752 109.884 148.853 109.91C148.954 109.936 149.079 109.947 149.227 109.942ZM156.544 109.42C156.562 109.918 156.391 110.315 156.033 110.61C155.675 110.905 155.137 111.065 154.42 111.09C154.149 111.099 153.897 111.088 153.663 111.057C153.429 111.026 153.228 110.972 153.061 110.896C152.893 110.82 152.76 110.721 152.663 110.6C152.565 110.478 152.513 110.332 152.507 110.162C152.501 110.004 152.529 109.871 152.59 109.76C152.65 109.65 152.725 109.557 152.813 109.481C153.004 109.58 153.221 109.666 153.467 109.739C153.712 109.813 153.992 109.844 154.309 109.833C154.509 109.826 154.661 109.791 154.766 109.728C154.87 109.666 154.921 109.585 154.917 109.487C154.914 109.395 154.873 109.324 154.793 109.274C154.714 109.225 154.584 109.187 154.402 109.16L154.109 109.111C153.543 109.019 153.119 108.859 152.836 108.629C152.553 108.399 152.404 108.061 152.389 107.615C152.38 107.373 152.424 107.151 152.521 106.951C152.617 106.75 152.757 106.581 152.939 106.444C153.122 106.306 153.343 106.197 153.602 106.115C153.861 106.034 154.149 105.988 154.465 105.977C154.704 105.968 154.929 105.979 155.14 106.007C155.351 106.036 155.536 106.084 155.693 106.151C155.851 106.217 155.976 106.306 156.071 106.418C156.165 106.53 156.215 106.664 156.221 106.822C156.226 106.972 156.203 107.103 156.152 107.213C156.101 107.323 156.035 107.416 155.953 107.491C155.9 107.46 155.822 107.428 155.717 107.396C155.613 107.363 155.498 107.334 155.375 107.309C155.251 107.284 155.126 107.264 154.999 107.248C154.873 107.233 154.758 107.227 154.654 107.231C154.441 107.238 154.277 107.269 154.163 107.322C154.048 107.375 153.993 107.454 153.997 107.559C153.999 107.631 154.033 107.689 154.1 107.733C154.166 107.776 154.29 107.815 154.472 107.848L154.775 107.906C155.4 108.029 155.847 108.212 156.118 108.455C156.388 108.698 156.53 109.02 156.544 109.42Z" fill="black"/>
</svg>
