<svg width="250" height="258" viewBox="0 0 250 258" fill="none" xmlns="http://www.w3.org/2000/svg">
<path fill-rule="evenodd" clip-rule="evenodd" d="M2.51771 140.267C25.898 85.2315 7.85019 16.3508 84.6108 16.6057C146.288 16.8106 175.731 31.2841 219.003 55.3026C260.877 78.5466 262.062 145.048 203.2 204.987C144.338 264.927 100.191 263.214 78.5509 249.514C56.9115 235.813 -14.1887 179.595 2.51771 140.267Z" fill="#F4F5F7"/>
<path fill-rule="evenodd" clip-rule="evenodd" d="M197.003 224.188H60.1496C51.3076 224.188 44.1392 216.988 44.1392 208.106V123.243C44.1392 115.459 50.422 109.147 58.172 109.147H206.662V214.486C206.662 219.844 202.338 224.188 197.003 224.188Z" fill="white"/>
<path fill-rule="evenodd" clip-rule="evenodd" d="M197.003 224.188H60.1496C51.3076 224.188 44.1392 216.988 44.1392 208.106V123.243C44.1392 115.459 50.422 109.147 58.172 109.147H206.662V214.486C206.662 219.844 202.338 224.188 197.003 224.188Z" stroke="black" stroke-width="2"/>
<path fill-rule="evenodd" clip-rule="evenodd" d="M247.73 78.7031C235.013 91.7246 202.363 125.755 191.799 136.777L96.0835 107.556L172.982 5.91309C172.982 5.91309 217.462 61.7351 247.73 78.7031Z" fill="white"/>
<path fill-rule="evenodd" clip-rule="evenodd" d="M248.268 77.6724C218.521 60.9986 174.267 5.6961 173.823 5.14617L172.988 4.09888L94.9678 107.216L97.1909 107.894L172.975 7.72701C175.848 11.2611 185.769 23.3455 198.221 36.7753C211.496 51.1018 230.388 69.8622 245.901 78.9977C233.089 92.1485 204.115 122.353 190.62 136.417L192.978 137.137C207.222 122.277 236.545 91.7411 248.464 79.5244L249.562 78.3972L248.268 77.6724Z" fill="black"/>
<path fill-rule="evenodd" clip-rule="evenodd" d="M222.761 85.8514C214.867 93.2765 188.244 122.615 178.976 132.862L107.977 111.187L167.897 32.7952C167.897 32.7952 167.905 32.8093 167.933 32.8305C167.949 32.8477 167.985 32.8831 168.026 32.9316C170.652 35.8663 213.377 83.3403 222.761 85.8514Z" fill="white"/>
<path fill-rule="evenodd" clip-rule="evenodd" d="M223.067 84.7265L222.933 84.6851C221.246 84.1705 218.432 82.1649 214.921 79.205C208.905 74.1141 200.865 66.1876 192.986 58.066C192.945 58.0175 192.891 57.976 192.849 57.9265C183.198 47.9721 173.824 37.7367 168.791 32.0807L168.126 30.6958L106.859 110.846L109.082 111.525L167.932 34.5484C173.743 40.9908 209.166 80.044 220.75 86.2621C211.571 95.2814 187.226 122.097 177.817 132.509L180.134 133.217C190.554 121.699 215.82 93.8974 223.461 86.7109L225.011 85.2472L223.067 84.7265Z" fill="black"/>
<path fill-rule="evenodd" clip-rule="evenodd" d="M225.839 80.941C220.004 76.9297 194.852 52.1272 172.354 29.1585L169.024 22.3157L163.731 29.2444L102.393 109.482L107.977 111.187L167.897 32.7957C167.897 32.7957 167.905 32.8099 167.933 32.8301C167.95 32.8473 167.985 32.8826 168.026 32.9322C169.359 34.2767 180.694 45.8667 192.849 57.9257C192.891 57.9753 192.945 58.0167 192.986 58.0663C200.785 65.7845 208.899 73.6857 214.921 79.2052C218.363 82.3522 221.123 84.7298 222.76 85.8509C214.867 93.277 188.244 122.614 178.977 132.862L184.776 134.633C201.543 116.108 220.279 95.7699 226.268 90.127L231.73 84.9937L225.839 80.941Z" fill="#FFD428"/>
<path fill-rule="evenodd" clip-rule="evenodd" d="M224.631 58.2874C215.246 73.3903 191.253 112.743 183.492 125.487L90.8174 116.042L143.601 2.55835C143.601 2.55835 193.987 47.8235 224.631 58.2874Z" fill="white"/>
<path fill-rule="evenodd" clip-rule="evenodd" d="M224.944 57.1848C194.827 46.9029 144.74 2.09568 144.239 1.65088L143.293 0.802734L89.7358 115.932L91.8885 116.152L143.91 4.31562C147.15 7.1694 158.326 16.9115 172.049 27.4562C186.683 38.7086 207.226 53.1443 223.008 58.9327C213.558 74.1791 192.267 109.106 182.35 125.37L184.633 125.604C195.098 108.422 216.651 73.1055 225.445 58.9377L226.255 57.6306L224.944 57.1848Z" fill="black"/>
<path fill-rule="evenodd" clip-rule="evenodd" d="M203.013 70.1173C197.074 78.8556 177.785 112.482 171.077 124.222L102.332 117.215L143.604 29.571C143.604 29.571 143.613 29.5842 143.641 29.5983C143.66 29.6115 143.699 29.6388 143.744 29.6782C146.656 32.0013 193.988 69.533 203.013 70.1173Z" fill="white"/>
<path fill-rule="evenodd" clip-rule="evenodd" d="M203.099 68.9682L202.969 68.955C201.336 68.7882 198.412 67.4023 194.686 65.2278C188.297 61.4855 179.565 55.3968 170.947 49.0878C170.901 49.0483 170.842 49.02 170.796 48.9806C160.237 41.2472 149.885 33.1863 144.298 28.7039L143.45 27.4949L101.25 117.105L103.403 117.325L143.939 31.2615C150.374 36.3514 189.564 67.1718 201.244 70.9091C194.403 81.4437 176.764 112.181 169.955 124.107L172.198 124.336C179.742 111.141 198.053 79.2683 203.803 70.8121L204.967 69.0895L203.099 68.9682Z" fill="black"/>
<path fill-rule="evenodd" clip-rule="evenodd" d="M204.981 64.7602C198.944 62.0257 171.624 42.9753 147.052 25.1753L141.691 22.8943L139.174 26.9545L96.9253 116.665L102.332 117.216L143.604 29.5707C143.604 29.5707 143.613 29.5838 143.641 29.598C143.66 29.6111 143.698 29.6384 143.744 29.6778C145.198 30.7181 157.581 39.703 170.796 48.981C170.842 49.0205 170.901 49.0488 170.947 49.0882C179.422 55.0232 188.217 61.0724 194.686 65.2283C198.382 67.5958 201.319 69.3538 203.013 70.117C197.074 78.8552 177.785 112.482 171.077 124.222L176.693 124.794C188.831 103.569 202.46 80.2038 206.964 73.5652L211.074 67.523L204.981 64.7602Z" fill="#FFD428"/>
<path fill-rule="evenodd" clip-rule="evenodd" d="M200.634 51.8987C192.813 67.9094 172.897 109.582 166.458 123.076H73.3076L114.418 4.57129C114.418 4.57129 169.094 44.5808 200.634 51.8987Z" fill="white"/>
<path fill-rule="evenodd" clip-rule="evenodd" d="M200.835 50.7681C169.839 43.5766 115.505 3.99364 114.961 3.60141L113.934 2.85132L72.2207 123.076H74.3844L114.9 6.29041C118.413 8.80756 130.51 17.3841 145.222 26.5034C160.912 36.2354 182.801 48.5401 199.084 52.707C191.213 68.8683 173.542 105.853 165.31 123.076H167.604C176.289 104.884 194.183 67.4834 201.51 52.4644L202.184 51.0795L200.835 50.7681Z" fill="black"/>
<path fill-rule="evenodd" clip-rule="evenodd" d="M180.315 65.8896C175.283 75.2051 159.473 110.69 153.978 123.076H84.8804L117.136 31.5017C117.136 31.5017 117.145 31.5138 117.176 31.525C117.195 31.5371 117.235 31.5593 117.286 31.5937C120.415 33.6145 171.279 66.2252 180.315 65.8896Z" fill="white"/>
<path fill-rule="evenodd" clip-rule="evenodd" d="M180.285 64.7356H180.154C178.513 64.7356 175.465 63.6499 171.54 61.8616C164.807 58.7794 155.508 53.5955 146.299 48.1821C146.249 48.1477 146.189 48.1245 146.138 48.0901C134.856 41.4525 123.746 34.4692 117.739 30.5671L116.773 29.447L83.7939 123.076H85.9576L117.638 33.153C124.552 37.5737 166.638 64.3201 178.634 66.8595C172.887 78.0563 158.426 110.494 152.85 123.076H155.105C161.285 109.155 176.3 75.5169 181.171 66.5017L182.156 64.6659L180.285 64.7356Z" fill="black"/>
<path fill-rule="evenodd" clip-rule="evenodd" d="M181.734 60.3488C175.454 58.236 147.934 42.7581 121.697 27.5086L114.982 23.4233L112.465 29.3434L79.4463 123.076H84.8807L117.136 31.5017C117.136 31.5017 117.145 31.5138 117.176 31.5249C117.195 31.537 117.236 31.5593 117.286 31.5937C118.836 32.4832 132.061 40.1823 146.139 48.0896C146.19 48.1239 146.249 48.1472 146.3 48.1816C155.327 53.2381 164.687 58.3745 171.54 61.8611C175.454 63.8465 178.554 65.3012 180.315 65.8895C175.283 75.205 159.473 110.69 153.978 123.076H159.624C169.567 100.682 180.778 76.0016 184.592 68.9253L188.074 62.4848L181.734 60.3488Z" fill="#FFD428"/>
<path fill-rule="evenodd" clip-rule="evenodd" d="M44.1387 208.106V123.244C44.1387 115.459 50.4215 109.147 58.1715 109.147H102.393" fill="white"/>
<path d="M44.1387 208.106V123.244C44.1387 115.459 50.4215 109.147 58.1715 109.147H102.393" stroke="black" stroke-width="2"/>
<path fill-rule="evenodd" clip-rule="evenodd" d="M152.612 72.1638C152.612 78.1604 147.771 83.0219 141.803 83.0219C135.832 83.0219 130.993 78.1604 130.993 72.1638C130.993 66.1671 135.832 61.3057 141.803 61.3057C147.771 61.3057 152.612 66.1671 152.612 72.1638Z" fill="#FFD428"/>
<path fill-rule="evenodd" clip-rule="evenodd" d="M145.921 110.838C145.921 123.853 135.418 134.402 122.463 134.402C109.508 134.402 99.0059 123.853 99.0059 110.838C99.0059 97.8249 109.508 87.2751 122.463 87.2751C135.418 87.2751 145.921 100.52 145.921 110.838Z" stroke="black" stroke-width="2"/>
<path fill-rule="evenodd" clip-rule="evenodd" d="M182.659 233.791H61.5635C51.856 233.791 43.9868 225.899 43.9868 216.164V123.449H181.403C187.434 123.449 192.323 128.352 192.323 134.4V224.1C192.323 229.452 187.996 233.791 182.659 233.791Z" fill="white"/>
<path fill-rule="evenodd" clip-rule="evenodd" d="M182.659 233.791H61.5635C51.856 233.791 43.9868 225.899 43.9868 216.164V123.449H181.403C187.434 123.449 192.323 128.352 192.323 134.4V224.1C192.323 229.452 187.996 233.791 182.659 233.791Z" stroke="black" stroke-width="2"/>
<path fill-rule="evenodd" clip-rule="evenodd" d="M172.065 188.935H201.438C204.397 188.935 206.797 186.529 206.797 183.561V169.068C206.797 166.1 204.397 163.694 201.438 163.694H172.065C168.922 163.694 165.895 164.919 163.661 167.137C160.791 169.985 157.303 173.937 157.303 176.315C157.303 178.693 160.791 182.644 163.661 185.492C165.895 187.711 168.922 188.935 172.065 188.935Z" fill="white"/>
<path fill-rule="evenodd" clip-rule="evenodd" d="M172.065 188.935H201.438C204.397 188.935 206.797 186.529 206.797 183.561V169.068C206.797 166.1 204.397 163.694 201.438 163.694H172.065C168.922 163.694 165.895 164.919 163.661 167.137C160.791 169.985 157.303 173.937 157.303 176.315C157.303 178.693 160.791 182.644 163.661 185.492C165.895 187.711 168.922 188.935 172.065 188.935Z" stroke="black" stroke-width="2"/>
<path fill-rule="evenodd" clip-rule="evenodd" d="M183.764 172.705C183.764 176.33 180.834 179.268 177.22 179.268C173.606 179.268 170.676 176.33 170.676 172.705C170.676 169.081 173.606 166.143 177.22 166.143C180.834 166.143 183.764 169.081 183.764 172.705Z" fill="white"/>
<path fill-rule="evenodd" clip-rule="evenodd" d="M183.764 176.705C183.764 180.33 180.834 183.268 177.22 183.268C173.606 183.268 170.676 180.33 170.676 176.705C170.676 173.081 173.606 170.143 177.22 170.143C180.834 170.143 183.764 173.081 183.764 176.705Z" stroke="black" stroke-width="2"/>
<path fill-rule="evenodd" clip-rule="evenodd" d="M128.888 196.427C128.888 201.868 122.186 206.277 113.918 206.277C105.649 206.277 98.9468 201.868 98.9468 196.427C98.9468 190.987 105.649 192.434 113.918 192.434C122.186 192.434 128.888 190.987 128.888 196.427Z" fill="#BEC2CE"/>
<path fill-rule="evenodd" clip-rule="evenodd" d="M86.1442 183.963C86.1442 187.727 84.1155 190.779 81.6136 190.779C79.1117 190.779 77.083 187.727 77.083 183.963C77.083 180.199 79.1117 177.148 81.6136 177.148C84.1155 177.148 86.1442 180.199 86.1442 183.963Z" fill="#FF8900"/>
<path fill-rule="evenodd" clip-rule="evenodd" d="M150.752 190.165C150.752 193.59 148.723 196.366 146.222 196.366C143.72 196.366 141.691 193.59 141.691 190.165C141.691 186.74 143.72 183.963 146.222 183.963C148.723 183.963 150.752 186.74 150.752 190.165Z" fill="#FF8900"/>
<path fill-rule="evenodd" clip-rule="evenodd" d="M98.2256 167.808C98.2256 169.249 97.0607 170.416 95.625 170.416C94.1883 170.416 93.0234 169.249 93.0234 167.808C93.0234 166.368 94.1883 165.2 95.625 165.2C97.0607 165.2 98.2256 166.368 98.2256 167.808Z" fill="#242A37"/>
<path fill-rule="evenodd" clip-rule="evenodd" d="M135.842 165.789C135.842 167.23 134.678 168.397 133.242 168.397C131.805 168.397 130.641 167.23 130.641 165.789C130.641 164.348 131.805 163.181 133.242 163.181C134.678 163.181 135.842 164.348 135.842 165.789Z" fill="#242A37"/>
<path fill-rule="evenodd" clip-rule="evenodd" d="M67.9873 246.756C59.9742 253.15 48.3094 251.82 41.9323 243.784C35.5562 235.748 36.8822 224.05 44.8953 217.655C52.9084 211.261 64.5742 212.59 70.9503 220.626C77.3273 228.662 76.0004 240.362 67.9873 246.756Z" fill="#FFD428"/>
<path fill-rule="evenodd" clip-rule="evenodd" d="M65.944 245.177C58.6085 251.032 47.9284 249.814 42.0909 242.457C36.2525 235.1 37.4677 224.39 44.8032 218.535C52.1398 212.681 62.8189 213.899 68.6563 221.256C74.4948 228.613 73.2806 239.323 65.944 245.177Z" fill="#FFF097"/>
<path fill-rule="evenodd" clip-rule="evenodd" d="M63.9957 242.721C58.0123 247.496 49.3015 246.502 44.5403 240.502C39.7791 234.501 40.7698 225.767 46.7532 220.992C52.7356 216.217 61.4465 217.21 66.2076 223.21C70.9698 229.211 69.9781 237.946 63.9957 242.721Z" fill="#FFC352"/>
<path fill-rule="evenodd" clip-rule="evenodd" d="M63.3191 241.869C57.6679 246.379 49.4393 245.441 44.942 239.773C40.4446 234.105 41.3799 225.854 47.0321 221.343C52.6842 216.833 60.9108 217.772 65.4082 223.439C69.9066 229.107 68.9702 237.359 63.3191 241.869Z" fill="#FFF097"/>
<path fill-rule="evenodd" clip-rule="evenodd" d="M51.3611 238.001L52.1897 236.438C50.313 235.081 50.1338 233.092 50.6624 231.782L52.7001 232.307C52.3004 233.273 52.4625 234.447 53.8026 235.162C54.749 235.667 55.5423 235.509 55.8836 234.867C56.1474 234.37 55.9843 233.796 55.342 233.247L54.1559 232.24C52.7686 231.049 52.3205 229.536 53.0636 228.134C53.8861 226.585 55.6843 226.083 57.3747 226.665L58.2043 225.104L59.6893 225.896L58.8376 227.503C60.3498 228.704 60.4575 230.26 60.1434 231.348L58.0794 230.903C58.2637 230.346 58.3352 229.296 57.1401 228.659C56.2078 228.161 55.4104 228.43 55.0933 229.029C54.8537 229.481 54.9725 230.032 55.5786 230.544L56.7424 231.557C58.3603 232.947 58.609 234.484 57.9123 235.799C57.1995 237.143 55.5786 237.873 53.6838 237.217L52.8471 238.794L51.3611 238.001Z" fill="#FFC64A"/>
<path fill-rule="evenodd" clip-rule="evenodd" d="M55.7926 222.296C55.7926 235.224 45.343 245.703 32.452 245.703C19.5619 245.703 9.11133 235.224 9.11133 222.296C9.11133 209.368 19.5619 198.889 32.452 198.889C45.343 198.889 55.7926 209.368 55.7926 222.296Z" fill="#FFD428"/>
<path fill-rule="evenodd" clip-rule="evenodd" d="M52.6405 223.077C52.6405 234.913 43.0739 244.507 31.2711 244.507C19.4704 244.507 9.90283 234.913 9.90283 223.077C9.90283 211.242 19.4704 201.647 31.2711 201.647C43.0739 201.647 52.6405 211.242 52.6405 223.077Z" fill="#FFF097"/>
<path fill-rule="evenodd" clip-rule="evenodd" d="M48.6997 223.077C48.6997 232.73 40.897 240.556 31.271 240.556C21.647 240.556 13.8433 232.73 13.8433 223.077C13.8433 213.424 21.647 205.599 31.271 205.599C40.897 205.599 48.6997 213.424 48.6997 223.077Z" fill="#FFC352"/>
<path fill-rule="evenodd" clip-rule="evenodd" d="M47.3331 223.077C47.3331 232.195 39.9633 239.587 30.8699 239.587C21.7785 239.587 14.4077 232.195 14.4077 223.077C14.4077 213.959 21.7785 206.567 30.8699 206.567C39.9633 206.567 47.3331 213.959 47.3331 223.077Z" fill="#FFF097"/>
<path fill-rule="evenodd" clip-rule="evenodd" d="M34.1621 231.857L33.2771 229.813C30.4722 230.604 28.3791 229.222 27.5052 227.672L29.6184 226.07C30.2537 227.224 31.5344 227.984 33.2872 227.22C34.5246 226.682 34.9917 225.774 34.6283 224.934C34.3484 224.284 33.6557 223.995 32.6126 224.198L30.6947 224.58C28.4385 225.017 26.599 224.274 25.8047 222.441C24.9277 220.415 25.8449 218.245 27.7428 217.033L26.8568 214.988L28.8009 214.142L29.71 216.243C32.076 215.691 33.6889 216.804 34.5115 217.968L32.4576 219.657C32.0529 219.038 31.0783 218.145 29.5157 218.826C28.2965 219.357 27.9351 220.355 28.2743 221.138C28.5321 221.731 29.1654 222.044 30.144 221.845L32.0508 221.492C34.6836 220.982 36.3891 221.941 37.1332 223.66C37.8943 225.418 37.3416 227.59 35.2122 228.948L36.1052 231.011L34.1621 231.857Z" fill="#FFC64A"/>
</svg>
