<svg width="24" height="24" viewBox="0 0 24 24" fill="none" xmlns="http://www.w3.org/2000/svg">
<rect width="24" height="24" fill="#FF0000" fill-opacity="0.01"/>
<path fill-rule="evenodd" clip-rule="evenodd" d="M8.36172 5.31135L2.89081 11.0386C2.56354 11.355 2.3999 11.7859 2.3999 12.2604C2.3999 12.735 2.56354 13.1604 2.89081 13.4823L8.36172 19.2313C9.01081 19.9132 10.069 19.9132 10.7181 19.2313C11.3672 18.5495 11.3672 17.4477 10.7181 16.7659L8.09445 14.0168H19.9308C20.8526 14.0168 21.5999 13.2368 21.5999 12.2714C21.5999 11.3059 20.8526 10.5259 19.9308 10.5259H8.09445L10.7235 7.77681C11.3726 7.09499 11.3726 5.99317 10.7235 5.31135C10.069 4.62953 9.01627 4.62953 8.36172 5.31135Z" fill="black"/>
<mask id="mask0_0_335" style="mask-type:luminance" maskUnits="userSpaceOnUse" x="2" y="4" width="20" height="16">
<path fill-rule="evenodd" clip-rule="evenodd" d="M8.36172 5.31135L2.89081 11.0386C2.56354 11.355 2.3999 11.7859 2.3999 12.2604C2.3999 12.735 2.56354 13.1604 2.89081 13.4823L8.36172 19.2313C9.01081 19.9132 10.069 19.9132 10.7181 19.2313C11.3672 18.5495 11.3672 17.4477 10.7181 16.7659L8.09445 14.0168H19.9308C20.8526 14.0168 21.5999 13.2368 21.5999 12.2714C21.5999 11.3059 20.8526 10.5259 19.9308 10.5259H8.09445L10.7235 7.77681C11.3726 7.09499 11.3726 5.99317 10.7235 5.31135C10.069 4.62953 9.01627 4.62953 8.36172 5.31135Z" fill="white"/>
</mask>
<g mask="url(#mask0_0_335)">
<rect width="24" height="24" fill="black"/>
</g>
</svg>
