<svg width="272" height="238" viewBox="0 0 272 238" fill="none" xmlns="http://www.w3.org/2000/svg">
<path fill-rule="evenodd" clip-rule="evenodd" d="M129.528 8.59458C127.15 13.3096 125.412 17.3746 125.665 17.6276C125.918 17.8796 128.447 18.1396 131.285 18.2046C134.122 18.2686 136.648 18.6516 136.897 19.0546C137.146 19.4576 131.673 31.4176 124.734 45.6326C117.796 59.8476 109.976 75.9786 107.357 81.4786C104.738 86.9786 98.5452 99.8036 93.5952 109.979C88.6462 120.154 80.2702 137.403 74.9832 148.311C69.6952 159.219 64.3522 168.991 63.1092 170.028C61.4882 171.38 59.2312 171.922 55.1142 171.946L49.3792 171.979L46.3432 177.993L43.3072 184.008L73.9052 183.743L104.504 183.479L106.33 178.292C112.676 160.269 124.785 148.719 142.902 143.406C147.184 142.15 152.27 141.675 161.06 141.709L173.271 141.756L170.935 137.117C169.65 134.566 167.683 130.454 166.563 127.979C165.444 125.504 162.763 119.654 160.607 114.979C158.451 110.304 153.799 100.186 150.269 92.4946C146.465 84.2086 143.733 79.3236 143.562 80.5046C143.403 81.6016 145.102 91.2356 147.337 101.915C150.21 115.644 151.072 121.533 150.28 122.022C149.665 122.403 146.543 122.987 143.344 123.322C134.948 124.199 119.801 129.321 112.443 133.77C103.034 139.459 95.2152 147.726 90.9282 156.517C87.4042 163.745 84.9692 165.756 83.7122 162.48C83.3952 161.655 89.7882 146.467 97.9172 128.73C106.047 110.992 115.049 91.3036 117.922 84.9786C135.444 46.4006 136.231 45.0246 138.489 48.9786C138.96 49.8036 143.344 59.0286 148.231 69.4786C153.119 79.9286 161.67 97.8766 167.234 109.364C172.798 120.85 177.35 130.383 177.35 130.548C177.35 130.712 180.663 137.589 184.711 145.829C188.867 154.287 191.752 161.328 191.337 162C190.933 162.654 187.673 163.424 184.092 163.712C177.617 164.231 177.559 164.213 173.216 160.249C167.63 155.149 165.325 153.979 160.866 153.979C155.866 153.979 152.175 156.135 149.026 160.892C144.45 167.808 145.748 174.61 152.834 180.831L156.42 183.979H192.452C227.978 183.979 228.476 183.951 227.853 181.988C227.505 180.892 221.347 167.955 214.168 153.238C206.989 138.52 198.526 121.079 195.361 114.479C188.352 99.8586 178.5 79.5356 162.399 46.4786C155.701 32.7286 147.924 16.6416 145.115 10.7286C140.246 0.475577 139.867 -0.020422 136.93 0.000577992C134.072 0.020578 133.539 0.639578 129.528 8.59458ZM117.845 28.7286C115.195 34.1126 103.111 58.9046 83.8492 98.4786C79.2972 107.829 70.1232 126.659 63.4622 140.324C56.8002 153.989 51.3502 165.352 51.3502 165.574C51.3502 165.797 53.1632 165.979 55.3792 165.979H59.4082L71.7602 140.729C78.5542 126.841 94.2912 94.8436 106.731 69.6236C119.172 44.4036 129.35 23.5916 129.35 23.3736C129.35 23.1566 127.398 22.9786 125.012 22.9786C120.726 22.9786 120.641 23.0476 117.845 28.7286ZM135.289 65.0396C132.282 68.0466 133.24 70.8966 138.493 74.5846L143.136 77.8446L143.841 72.2006C144.476 67.1236 144.324 66.3766 142.338 64.7676C139.471 62.4466 137.819 62.5096 135.289 65.0396ZM141.162 68.2436C141.56 70.3096 138.674 71.7026 137.15 70.1786C135.626 68.6546 137.019 65.7686 139.085 66.1666C140.043 66.3506 140.978 67.2856 141.162 68.2436ZM17.6292 203.229C14.8092 206.295 -0.617826 235.222 0.0191743 236.252C0.779174 237.481 2.97117 235.309 4.36417 231.946L5.59317 228.979H23.9512H42.3092L44.3502 232.979C46.1772 236.56 48.3502 238.298 48.3502 236.179C48.3502 234.713 32.5342 205.515 30.5022 203.229C29.0002 201.539 27.4052 200.979 24.1002 200.979C20.8152 200.979 19.1732 201.55 17.6292 203.229ZM58.3502 202.011C58.3502 202.578 59.8652 205.841 61.7172 209.261C63.5692 212.681 66.9862 219.079 69.3102 223.479C74.8662 233.997 78.4272 237.39 83.1112 236.63C85.0292 236.319 87.4212 235.32 88.4262 234.41C90.1322 232.866 90.4802 232.896 93.6702 234.868C101.74 239.855 105.388 236.886 115.772 216.876C123.64 201.715 123.948 200.979 122.436 200.979C121.496 200.979 117.516 207.821 110.8 220.979C104.699 232.934 103.786 233.979 99.4372 233.979C97.0852 233.979 95.0872 233.319 94.1422 232.229C93.3062 231.266 89.3532 224.179 85.3562 216.479C77.5652 201.47 76.7702 200.226 75.6712 201.325C74.9392 202.057 77.5942 207.623 85.1852 221.275C89.3472 228.759 89.4562 229.168 87.9122 231.525C86.6592 233.438 85.4422 233.979 82.3952 233.979C77.6442 233.979 77.3692 233.624 67.4412 214.729C61.0162 202.5 58.3502 198.77 58.3502 202.011ZM136.585 204.4L132.85 207.82L132.524 222.508C132.262 234.366 132.454 237.111 133.524 236.757C134.448 236.451 134.938 233.838 135.14 228.149L135.431 219.979H148.974C159.363 219.979 162.42 219.688 162.101 218.729C161.804 217.833 157.959 217.4 148.518 217.2L135.35 216.921V213.006C135.35 210.31 136.101 208.216 137.761 206.285C140.137 203.519 140.357 203.474 153.011 203.154C170.674 202.708 171.488 200.979 154.035 200.979H140.321L136.585 204.4ZM194.038 204.229C191.151 208.117 177.35 234.282 177.35 235.868C177.35 238.258 179.133 236.786 180.85 232.979L182.654 228.979H200.982H219.309L221.35 232.979C223.268 236.738 225.35 238.274 225.35 235.93C225.35 233.948 209.215 204.479 207.172 202.729C205.906 201.645 203.477 200.979 200.79 200.979C197.057 200.979 196.115 201.433 194.038 204.229ZM235.385 202.913C234.022 205.459 233.99 236.979 235.35 236.979C235.939 236.979 236.35 233.469 236.35 228.448V219.917L248.57 220.198L260.789 220.479L264.991 228.453C268.783 235.651 271.35 238.771 271.35 236.184C271.35 235.655 269.535 231.817 267.316 227.654L263.281 220.086L265.566 218.916C271.686 215.779 273.099 209.211 268.761 204.056L266.172 200.979H251.296C237.612 200.979 236.337 201.134 235.385 202.913ZM28.6752 205.229C29.9042 206.467 33.0552 211.641 35.6772 216.729L40.4442 225.979H24.3972C15.5712 225.979 8.35017 225.594 8.35017 225.123C8.35017 223.24 18.6052 204.933 20.1722 204.019C22.9772 202.382 26.3212 202.858 28.6752 205.229ZM206.034 205.229C207.913 207.309 217.35 224.145 217.35 225.417C217.35 225.726 210.15 225.979 201.35 225.979C192.55 225.979 185.35 225.679 185.35 225.312C185.35 223.799 195.63 205.382 197.119 204.229C199.632 202.282 203.793 202.748 206.034 205.229ZM266.197 204.729C269.386 207.428 269.824 211.106 267.334 214.272L265.205 216.979H250.777H236.35V211.179C236.35 207.989 236.89 204.839 237.55 204.179C238.357 203.372 242.903 202.979 251.439 202.979C262.07 202.979 264.464 203.263 266.197 204.729Z" fill="#C84242"/>
</svg>
