<svg width="50" height="50" viewBox="0 0 50 50" fill="none" xmlns="http://www.w3.org/2000/svg">
<path fill-rule="evenodd" clip-rule="evenodd" d="M25 50C38.8071 50 50 38.8071 50 25C50 11.1929 38.8071 0 25 0C11.1929 0 0 11.1929 0 25C0 38.8071 11.1929 50 25 50Z" fill="#FFD428"/>
<rect x="10" y="11" width="33" height="30" fill="#FF0000" fill-opacity="0.01"/>
<path fill-rule="evenodd" clip-rule="evenodd" d="M39.6998 23C39.6998 23.2764 39.4538 23.5 39.1498 23.5C37.6335 23.5 36.3998 24.6216 36.3998 26C36.3998 27.3784 37.6335 28.5 39.1498 28.5C39.4538 28.5 39.6998 28.7236 39.6998 29V33C39.6998 34.103 38.7132 35 37.4998 35H15.4998C14.2865 35 13.2998 34.103 13.2998 33V29C13.2998 28.7236 13.5458 28.5 13.8498 28.5C15.3661 28.5 16.5998 27.3784 16.5998 26C16.5998 24.6216 15.3661 23.5 13.8498 23.5C13.5458 23.5 13.2998 23.2764 13.2998 23V19C13.2998 17.897 14.2865 17 15.4998 17H37.4998C38.7132 17 39.6998 17.897 39.6998 19V23ZM20.4498 33C20.7538 33 20.9998 32.7764 20.9998 32.5V31.5C20.9998 31.2237 20.7538 31 20.4498 31C20.1458 31 19.8998 31.2237 19.8998 31.5V32.5C19.8998 32.7764 20.1458 33 20.4498 33ZM20.9998 28.5C20.9998 28.7764 20.7538 29 20.4498 29C20.1458 29 19.8998 28.7764 19.8998 28.5V27.5C19.8998 27.2236 20.1458 27 20.4498 27C20.7538 27 20.9998 27.2236 20.9998 27.5V28.5ZM20.4498 25C20.7538 25 20.9998 24.7764 20.9998 24.5V23.5C20.9998 23.2236 20.7538 23 20.4498 23C20.1458 23 19.8998 23.2236 19.8998 23.5V24.5C19.8998 24.7764 20.1458 25 20.4498 25ZM20.9998 20.5C20.9998 20.7764 20.7538 21 20.4498 21C20.1458 21 19.8998 20.7764 19.8998 20.5V19.375C19.8998 19.0986 20.1458 18.875 20.4498 18.875C20.7538 18.875 20.9998 19.0986 20.9998 19.375V20.5ZM25.3998 21C24.1865 21 23.1998 22.1216 23.1998 23.5C23.1998 24.8784 24.1865 26 25.3998 26C26.6131 26 27.5998 24.8784 27.5998 23.5C27.5998 22.1216 26.6132 21 25.3998 21ZM24.8493 31C24.7446 31 24.6388 30.9727 24.5448 30.916C24.2918 30.7627 24.2236 30.4527 24.3922 30.2226L30.9922 21.2226C31.1603 20.9927 31.5003 20.9307 31.755 21.084C32.0079 21.2373 32.0761 21.5473 31.9075 21.7774L25.3075 30.7774C25.2016 30.9219 25.0271 31 24.8493 31ZM28.6998 28.5C28.6998 29.8784 29.6865 31 30.8998 31C32.1132 31 33.0998 29.8784 33.0998 28.5C33.0998 27.1216 32.1132 26 30.8998 26C29.6865 26 28.6998 27.1216 28.6998 28.5Z" fill="black"/>
<mask id="mask0_2027_1511" style="mask-type:luminance" maskUnits="userSpaceOnUse" x="13" y="17" width="27" height="18">
<path fill-rule="evenodd" clip-rule="evenodd" d="M39.6998 23C39.6998 23.2764 39.4538 23.5 39.1498 23.5C37.6335 23.5 36.3998 24.6216 36.3998 26C36.3998 27.3784 37.6335 28.5 39.1498 28.5C39.4538 28.5 39.6998 28.7236 39.6998 29V33C39.6998 34.103 38.7132 35 37.4998 35H15.4998C14.2865 35 13.2998 34.103 13.2998 33V29C13.2998 28.7236 13.5458 28.5 13.8498 28.5C15.3661 28.5 16.5998 27.3784 16.5998 26C16.5998 24.6216 15.3661 23.5 13.8498 23.5C13.5458 23.5 13.2998 23.2764 13.2998 23V19C13.2998 17.897 14.2865 17 15.4998 17H37.4998C38.7132 17 39.6998 17.897 39.6998 19V23ZM20.4498 33C20.7538 33 20.9998 32.7764 20.9998 32.5V31.5C20.9998 31.2237 20.7538 31 20.4498 31C20.1458 31 19.8998 31.2237 19.8998 31.5V32.5C19.8998 32.7764 20.1458 33 20.4498 33ZM20.9998 28.5C20.9998 28.7764 20.7538 29 20.4498 29C20.1458 29 19.8998 28.7764 19.8998 28.5V27.5C19.8998 27.2236 20.1458 27 20.4498 27C20.7538 27 20.9998 27.2236 20.9998 27.5V28.5ZM20.4498 25C20.7538 25 20.9998 24.7764 20.9998 24.5V23.5C20.9998 23.2236 20.7538 23 20.4498 23C20.1458 23 19.8998 23.2236 19.8998 23.5V24.5C19.8998 24.7764 20.1458 25 20.4498 25ZM20.9998 20.5C20.9998 20.7764 20.7538 21 20.4498 21C20.1458 21 19.8998 20.7764 19.8998 20.5V19.375C19.8998 19.0986 20.1458 18.875 20.4498 18.875C20.7538 18.875 20.9998 19.0986 20.9998 19.375V20.5ZM25.3998 21C24.1865 21 23.1998 22.1216 23.1998 23.5C23.1998 24.8784 24.1865 26 25.3998 26C26.6131 26 27.5998 24.8784 27.5998 23.5C27.5998 22.1216 26.6132 21 25.3998 21ZM24.8493 31C24.7446 31 24.6388 30.9727 24.5448 30.916C24.2918 30.7627 24.2236 30.4527 24.3922 30.2226L30.9922 21.2226C31.1603 20.9927 31.5003 20.9307 31.755 21.084C32.0079 21.2373 32.0761 21.5473 31.9075 21.7774L25.3075 30.7774C25.2016 30.9219 25.0271 31 24.8493 31ZM28.6998 28.5C28.6998 29.8784 29.6865 31 30.8998 31C32.1132 31 33.0998 29.8784 33.0998 28.5C33.0998 27.1216 32.1132 26 30.8998 26C29.6865 26 28.6998 27.1216 28.6998 28.5Z" fill="white"/>
</mask>
<g mask="url(#mask0_2027_1511)">
<rect x="10" y="11" width="33" height="30" fill="#242A37"/>
</g>
</svg>
