<svg width="14" height="14" viewBox="0 0 14 14" fill="none" xmlns="http://www.w3.org/2000/svg">
<rect width="14" height="14" fill="#FF0000" fill-opacity="0.01"/>
<path d="M12.3575 6.29432C12.5776 6.07072 12.6551 5.74276 12.5603 5.43806C12.4655 5.13336 12.218 4.91571 11.9145 4.8698L9.25924 4.46731C9.20736 4.45956 9.16205 4.42557 9.13879 4.37608L7.95159 1.86572C7.81504 1.57831 7.54015 1.40002 7.23307 1.40002C6.92598 1.40002 6.65109 1.57831 6.51574 1.86572L5.32794 4.37608C5.30469 4.42557 5.25937 4.45956 5.20749 4.46731L2.55224 4.8704C2.24873 4.91631 2.00127 5.13395 1.90646 5.43866C1.81166 5.74336 1.88917 6.07131 2.1092 6.29492L4.03043 8.24894C4.06799 8.2871 4.08529 8.34256 4.07634 8.39682L3.62257 11.1564C3.57069 11.4719 3.69293 11.7849 3.94098 11.9733C4.18904 12.1618 4.51222 12.1862 4.78353 12.0371L7.15853 10.7343C7.20504 10.7086 7.26109 10.7086 7.3076 10.7343L9.6826 12.0371C9.80067 12.1009 9.92827 12.1331 10.0559 12.1331C10.221 12.1331 10.385 12.0789 10.5257 11.9727C10.7738 11.7843 10.896 11.4713 10.8442 11.1558L10.3904 8.39622C10.3814 8.34196 10.3987 8.28651 10.4363 8.24834L12.3575 6.29432Z" fill="black"/>
<mask id="mask0_52_2937" style="mask-type:luminance" maskUnits="userSpaceOnUse" x="1" y="1" width="12" height="12">
<path d="M12.3575 6.29432C12.5776 6.07072 12.6551 5.74276 12.5603 5.43806C12.4655 5.13336 12.218 4.91571 11.9145 4.8698L9.25924 4.46731C9.20736 4.45956 9.16205 4.42557 9.13879 4.37608L7.95159 1.86572C7.81504 1.57831 7.54015 1.40002 7.23307 1.40002C6.92598 1.40002 6.65109 1.57831 6.51574 1.86572L5.32794 4.37608C5.30469 4.42557 5.25937 4.45956 5.20749 4.46731L2.55224 4.8704C2.24873 4.91631 2.00127 5.13395 1.90646 5.43866C1.81166 5.74336 1.88917 6.07131 2.1092 6.29492L4.03043 8.24894C4.06799 8.2871 4.08529 8.34256 4.07634 8.39682L3.62257 11.1564C3.57069 11.4719 3.69293 11.7849 3.94098 11.9733C4.18904 12.1618 4.51222 12.1862 4.78353 12.0371L7.15853 10.7343C7.20504 10.7086 7.26109 10.7086 7.3076 10.7343L9.6826 12.0371C9.80067 12.1009 9.92827 12.1331 10.0559 12.1331C10.221 12.1331 10.385 12.0789 10.5257 11.9727C10.7738 11.7843 10.896 11.4713 10.8442 11.1558L10.3904 8.39622C10.3814 8.34196 10.3987 8.28651 10.4363 8.24834L12.3575 6.29432Z" fill="white"/>
</mask>
<g mask="url(#mask0_52_2937)">
<rect width="14" height="14" fill="#FFD428"/>
</g>
</svg>
