<svg width="37" height="30" viewBox="0 0 37 30" fill="#BEC2CE" xmlns="http://www.w3.org/2000/svg">
    <rect width="37" height="30" fill="#FF0000" fill-opacity="0.01" />
    <path fill-rule="evenodd" clip-rule="evenodd"
        d="M20.1149 3.41909L30.9317 11.8394C31.4748 12.2638 31.6457 12.9131 31.3637 13.4803C31.0817 14.0475 30.4032 14.4191 29.649 14.4195H28.6993V24.4999C28.6993 25.8807 27.3188 27 25.6158 27H12.0486C11.2308 27 10.4466 26.7366 9.86829 26.2677C9.29003 25.7989 8.96517 25.163 8.96517 24.4999V14.4195H8.0093C7.25615 14.4171 6.57999 14.0447 6.29958 13.478C6.01916 12.9112 6.19048 12.2632 6.73275 11.8394L17.5495 3.41909C18.2658 2.8603 19.3986 2.8603 20.1149 3.41909ZM16.3655 18.4997C16.3655 19.6043 17.4699 20.4997 18.8322 20.4997C20.1946 20.4997 21.299 19.6043 21.299 18.4997C21.299 17.3951 20.1946 16.4996 18.8322 16.4996C17.4699 16.4996 16.3655 17.3951 16.3655 18.4997Z"
        fill="#D3D4ED" />
    <mask id="mask0_30_4588" style="mask-type:luminance" maskUnits="userSpaceOnUse" x="6" y="3"
        width="26" height="24">
        <path fill-rule="evenodd" clip-rule="evenodd"
            d="M20.1149 3.41909L30.9317 11.8394C31.4748 12.2638 31.6457 12.9131 31.3637 13.4803C31.0817 14.0475 30.4032 14.4191 29.649 14.4195H28.6993V24.4999C28.6993 25.8807 27.3188 27 25.6158 27H12.0486C11.2308 27 10.4466 26.7366 9.86829 26.2677C9.29003 25.7989 8.96517 25.163 8.96517 24.4999V14.4195H8.0093C7.25615 14.4171 6.57999 14.0447 6.29958 13.478C6.01916 12.9112 6.19048 12.2632 6.73275 11.8394L17.5495 3.41909C18.2658 2.8603 19.3986 2.8603 20.1149 3.41909ZM16.3655 18.4997C16.3655 19.6043 17.4699 20.4997 18.8322 20.4997C20.1946 20.4997 21.299 19.6043 21.299 18.4997C21.299 17.3951 20.1946 16.4996 18.8322 16.4996C17.4699 16.4996 16.3655 17.3951 16.3655 18.4997Z"
            fill="white" />
    </mask>
    <g mask="url(#mask0_30_4588)">
        <rect width="37" height="30" fill="#BEC2CE" />
    </g>
</svg>
