<svg width="37" height="30" viewBox="0 0 37 30" fill="none" xmlns="http://www.w3.org/2000/svg">
<rect width="37" height="30" fill="#FF0000" fill-opacity="0.01"/>
<path opacity="0.3" fill-rule="evenodd" clip-rule="evenodd" d="M11.7004 21.5C11.7004 20.782 11.0484 20.2 10.1705 20.2C9.29263 20.2 8.63861 20.782 8.63861 21.5V22.8C8.63861 25.6719 11.2785 28 14.79 28H24.6705C28.1821 28 30.8335 25.6719 30.8335 22.8V7.2C30.8335 4.32812 27.9868 2 24.4752 2H14.79C11.2785 2 8.63861 4.32812 8.63861 7.2V8.50001C8.63861 9.21798 9.2816 9.80001 10.1595 9.80001C11.0374 9.80001 11.7491 9.21798 11.7491 8.50001V7.2C11.7491 5.76406 13.0343 4.48282 14.79 4.48282L24.6705 4.53265C26.4263 4.53265 27.8014 5.76406 27.8014 7.2V22.8C27.8014 24.2359 26.4263 25.5023 24.6705 25.5023H14.79C13.0343 25.5023 11.7004 24.2359 11.7004 22.8V21.5ZM25.0736 14.1137C25.6877 14.6235 25.6739 15.4224 25.0325 15.9192L19.9975 19.8192C19.342 20.3269 18.2794 20.3269 17.6239 19.8192C16.9685 19.3116 16.9685 18.4884 17.6239 17.9808L20.5356 15.7254L5.9335 15.7254C5.38121 15.7254 4.93349 15.2777 4.93349 14.7254V14.1254C4.93349 13.5732 5.38121 13.1254 5.93349 13.1254L19.0521 13.1254L17.6239 12.0192C16.9685 11.5116 16.9685 10.6884 17.6239 10.1808C18.2794 9.67308 19.342 9.67308 19.9975 10.1808L23.7992 13.1254H24.0737C24.6221 13.1254 25.0674 13.5668 25.0736 14.1137Z" fill="black"/>
<mask id="mask0_30_4585" style="mask-type:luminance" maskUnits="userSpaceOnUse" x="4" y="2" width="27" height="26">
<path fill-rule="evenodd" clip-rule="evenodd" d="M11.7004 21.5C11.7004 20.782 11.0484 20.2 10.1705 20.2C9.29263 20.2 8.63861 20.782 8.63861 21.5V22.8C8.63861 25.6719 11.2785 28 14.79 28H24.6705C28.1821 28 30.8335 25.6719 30.8335 22.8V7.2C30.8335 4.32812 27.9868 2 24.4752 2H14.79C11.2785 2 8.63861 4.32812 8.63861 7.2V8.50001C8.63861 9.21798 9.2816 9.80001 10.1595 9.80001C11.0374 9.80001 11.7491 9.21798 11.7491 8.50001V7.2C11.7491 5.76406 13.0343 4.48282 14.79 4.48282L24.6705 4.53265C26.4263 4.53265 27.8014 5.76406 27.8014 7.2V22.8C27.8014 24.2359 26.4263 25.5023 24.6705 25.5023H14.79C13.0343 25.5023 11.7004 24.2359 11.7004 22.8V21.5ZM25.0736 14.1137C25.6877 14.6235 25.6739 15.4224 25.0325 15.9192L19.9975 19.8192C19.342 20.3269 18.2794 20.3269 17.6239 19.8192C16.9685 19.3116 16.9685 18.4884 17.6239 17.9808L20.5356 15.7254L5.9335 15.7254C5.38121 15.7254 4.93349 15.2777 4.93349 14.7254V14.1254C4.93349 13.5732 5.38121 13.1254 5.93349 13.1254L19.0521 13.1254L17.6239 12.0192C16.9685 11.5116 16.9685 10.6884 17.6239 10.1808C18.2794 9.67308 19.342 9.67308 19.9975 10.1808L23.7992 13.1254H24.0737C24.6221 13.1254 25.0674 13.5668 25.0736 14.1137Z" fill="white"/>
</mask>
<g mask="url(#mask0_30_4585)">
<rect width="37" height="30" fill="#BEC2CE"/>
</g>
</svg>
