<svg width="37" height="30" viewBox="0 0 37 30" fill="none" xmlns="http://www.w3.org/2000/svg">
<rect width="37" height="30" fill="#FF0000" fill-opacity="0.01"/>
<path fill-rule="evenodd" clip-rule="evenodd" d="M7.06241 7.44C9.76819 4.74918 13.8704 3 18.5002 3C26.6611 3 33.3002 8.38306 33.3002 15C33.3002 21.6169 26.6611 27 18.5002 27C10.3393 27 3.7002 21.6169 3.7002 15C3.7002 13.7647 6.70601 13.6475 6.77043 15C7.02464 20.3788 11.8628 24.5015 18.5002 24.5015C25.1376 24.5015 30.2457 20.3831 30.2457 15C30.2457 9.61835 25.1393 5.45123 18.5002 5.45123C14.6313 5.45123 11.2064 6.72 8.98641 9L11.0614 10.6824C11.4273 10.9791 11.2175 11.5708 10.7465 11.5708H3.9002C3.78974 11.5708 3.7002 11.4813 3.7002 11.3708V5.76299C3.7002 5.34221 4.18825 5.1096 4.5151 5.37461L7.06241 7.44ZM18.5008 10C18.5008 9.45613 18.5008 9.00372 19.731 9.00372C20.9612 9.00372 20.9645 9.45193 20.9645 10V16.0256C20.9645 17.0081 19.7216 18.0023 18.4718 18.0023H13.5674C13.5674 18.0023 12.3371 17.9639 12.3371 16.9857C12.3371 16.0076 13.5674 16.0256 13.5674 16.0256H18.5495L18.5008 10Z" fill="black"/>
<mask id="mask0_30_4586" style="mask-type:luminance" maskUnits="userSpaceOnUse" x="3" y="3" width="31" height="24">
<path fill-rule="evenodd" clip-rule="evenodd" d="M7.06241 7.44C9.76819 4.74918 13.8704 3 18.5002 3C26.6611 3 33.3002 8.38306 33.3002 15C33.3002 21.6169 26.6611 27 18.5002 27C10.3393 27 3.7002 21.6169 3.7002 15C3.7002 13.7647 6.70601 13.6475 6.77043 15C7.02464 20.3788 11.8628 24.5015 18.5002 24.5015C25.1376 24.5015 30.2457 20.3831 30.2457 15C30.2457 9.61835 25.1393 5.45123 18.5002 5.45123C14.6313 5.45123 11.2064 6.72 8.98641 9L11.0614 10.6824C11.4273 10.9791 11.2175 11.5708 10.7465 11.5708H3.9002C3.78974 11.5708 3.7002 11.4813 3.7002 11.3708V5.76299C3.7002 5.34221 4.18825 5.1096 4.5151 5.37461L7.06241 7.44ZM18.5008 10C18.5008 9.45613 18.5008 9.00372 19.731 9.00372C20.9612 9.00372 20.9645 9.45193 20.9645 10V16.0256C20.9645 17.0081 19.7216 18.0023 18.4718 18.0023H13.5674C13.5674 18.0023 12.3371 17.9639 12.3371 16.9857C12.3371 16.0076 13.5674 16.0256 13.5674 16.0256H18.5495L18.5008 10Z" fill="white"/>
</mask>
<g mask="url(#mask0_30_4586)">
<rect width="37" height="30" fill="#BEC2CE"/>
</g>
</svg>
