<svg width="30" height="31" viewBox="0 0 30 31" fill="none" xmlns="http://www.w3.org/2000/svg">
<rect width="30" height="31" fill="#FF0000" fill-opacity="0.01"/>
<path fill-rule="evenodd" clip-rule="evenodd" d="M15 2.06689C7.78524 2.06689 2 8.11196 2 15.5002C2 22.8885 7.78524 28.9336 15 28.9336C22.2148 28.9336 28 22.8885 28 15.5002C28 8.11196 22.1499 2.06689 15 2.06689ZM15 26.8669C8.95013 26.8669 4 21.7517 4 15.5002C4 9.24876 8.95013 4.13356 15 4.13356C21.0499 4.13356 26 9.24869 26 15.5002C26 21.7518 21.0499 26.8669 15 26.8669ZM16.2375 20.7349C16.9175 20.5448 17.5029 20.1727 17.9535 19.6202C19.1976 18.0895 18.7216 15.8437 16.9708 14.8447C16.4991 14.5799 16.0051 14.3739 15.5078 14.1664C15.4205 14.13 15.333 14.0935 15.2455 14.0566C14.9081 13.9161 14.5815 13.7508 14.2988 13.5193C13.7334 13.0674 13.8428 12.3289 14.5015 12.0381C14.6855 11.9568 14.8841 11.9265 15.0828 11.9169C15.8455 11.8769 16.5695 12.0175 17.2589 12.3537C17.6055 12.5245 17.7202 12.4694 17.8349 12.1098C17.9313 11.813 18.0156 11.5103 18.0998 11.2083C18.1239 11.122 18.1479 11.0357 18.1722 10.9497C18.2469 10.6879 18.1522 10.517 17.9095 10.4068C17.4682 10.2098 17.0122 10.0651 16.5362 9.98933C15.9162 9.89508 15.9161 9.88885 15.911 9.2724L15.9108 9.25634C15.9081 8.8073 15.9068 8.58375 15.7944 8.47246C15.6829 8.36214 15.4622 8.36214 15.0228 8.36214C14.9796 8.36214 14.9366 8.36152 14.8937 8.36091C14.8079 8.35968 14.7223 8.35846 14.6361 8.36214C14.2188 8.37178 14.1494 8.44618 14.1414 8.86917V9.43683C14.1362 9.98946 14.1361 9.98949 13.6319 10.1752L13.6054 10.185C12.3254 10.6576 11.532 11.5407 11.448 12.9571C11.3734 14.2123 12.0174 15.0556 13.0347 15.6742C13.4677 15.939 13.9348 16.1289 14.402 16.3188C14.6081 16.4026 14.8142 16.4864 15.0175 16.5767C15.2748 16.691 15.5228 16.8274 15.7415 17.0079C16.3815 17.5411 16.2628 18.4298 15.5041 18.766C15.0975 18.9465 14.6655 18.992 14.2294 18.9368C13.5508 18.8514 12.9001 18.6709 12.2907 18.3499C11.9334 18.1639 11.8294 18.2149 11.7054 18.6062C11.6229 18.8641 11.5512 19.1269 11.4798 19.3889C11.4577 19.4698 11.4357 19.5507 11.4134 19.6313C11.2894 20.0942 11.3334 20.2044 11.7654 20.4152C12.3161 20.6867 12.9054 20.8272 13.5108 20.9223C13.9814 20.9981 13.9961 21.0173 14.0014 21.5147C14.0014 21.7352 14.0014 21.9611 14.0068 22.1871C14.0121 22.4682 14.1454 22.6335 14.4335 22.639C14.7601 22.6487 15.0881 22.6487 15.4148 22.639C15.6828 22.6335 15.8215 22.4875 15.8215 22.2119C15.8215 22.1096 15.8231 22.0068 15.8247 21.9039C15.828 21.6979 15.8313 21.4914 15.8215 21.2874C15.8055 20.976 15.9402 20.8148 16.2375 20.7349Z" fill="black" fill-opacity="0.9"/>
<mask id="mask0_52_4471" style="mask-type:luminance" maskUnits="userSpaceOnUse" x="2" y="2" width="26" height="27">
<path fill-rule="evenodd" clip-rule="evenodd" d="M15 2.06689C7.78524 2.06689 2 8.11196 2 15.5002C2 22.8885 7.78524 28.9336 15 28.9336C22.2148 28.9336 28 22.8885 28 15.5002C28 8.11196 22.1499 2.06689 15 2.06689ZM15 26.8669C8.95013 26.8669 4 21.7517 4 15.5002C4 9.24876 8.95013 4.13356 15 4.13356C21.0499 4.13356 26 9.24869 26 15.5002C26 21.7518 21.0499 26.8669 15 26.8669ZM16.2375 20.7349C16.9175 20.5448 17.5029 20.1727 17.9535 19.6202C19.1976 18.0895 18.7216 15.8437 16.9708 14.8447C16.4991 14.5799 16.0051 14.3739 15.5078 14.1664C15.4205 14.13 15.333 14.0935 15.2455 14.0566C14.9081 13.9161 14.5815 13.7508 14.2988 13.5193C13.7334 13.0674 13.8428 12.3289 14.5015 12.0381C14.6855 11.9568 14.8841 11.9265 15.0828 11.9169C15.8455 11.8769 16.5695 12.0175 17.2589 12.3537C17.6055 12.5245 17.7202 12.4694 17.8349 12.1098C17.9313 11.813 18.0156 11.5103 18.0998 11.2083C18.1239 11.122 18.1479 11.0357 18.1722 10.9497C18.2469 10.6879 18.1522 10.517 17.9095 10.4068C17.4682 10.2098 17.0122 10.0651 16.5362 9.98933C15.9162 9.89508 15.9161 9.88885 15.911 9.2724L15.9108 9.25634C15.9081 8.8073 15.9068 8.58375 15.7944 8.47246C15.6829 8.36214 15.4622 8.36214 15.0228 8.36214C14.9796 8.36214 14.9366 8.36152 14.8937 8.36091C14.8079 8.35968 14.7223 8.35846 14.6361 8.36214C14.2188 8.37178 14.1494 8.44618 14.1414 8.86917V9.43683C14.1362 9.98946 14.1361 9.98949 13.6319 10.1752L13.6054 10.185C12.3254 10.6576 11.532 11.5407 11.448 12.9571C11.3734 14.2123 12.0174 15.0556 13.0347 15.6742C13.4677 15.939 13.9348 16.1289 14.402 16.3188C14.6081 16.4026 14.8142 16.4864 15.0175 16.5767C15.2748 16.691 15.5228 16.8274 15.7415 17.0079C16.3815 17.5411 16.2628 18.4298 15.5041 18.766C15.0975 18.9465 14.6655 18.992 14.2294 18.9368C13.5508 18.8514 12.9001 18.6709 12.2907 18.3499C11.9334 18.1639 11.8294 18.2149 11.7054 18.6062C11.6229 18.8641 11.5512 19.1269 11.4798 19.3889C11.4577 19.4698 11.4357 19.5507 11.4134 19.6313C11.2894 20.0942 11.3334 20.2044 11.7654 20.4152C12.3161 20.6867 12.9054 20.8272 13.5108 20.9223C13.9814 20.9981 13.9961 21.0173 14.0014 21.5147C14.0014 21.7352 14.0014 21.9611 14.0068 22.1871C14.0121 22.4682 14.1454 22.6335 14.4335 22.639C14.7601 22.6487 15.0881 22.6487 15.4148 22.639C15.6828 22.6335 15.8215 22.4875 15.8215 22.2119C15.8215 22.1096 15.8231 22.0068 15.8247 21.9039C15.828 21.6979 15.8313 21.4914 15.8215 21.2874C15.8055 20.976 15.9402 20.8148 16.2375 20.7349Z" fill="white"/>
</mask>
<g mask="url(#mask0_52_4471)">
<rect width="30" height="31" fill="black"/>
</g>
</svg>
