<svg width="50" height="50" viewBox="0 0 50 50" fill="none" xmlns="http://www.w3.org/2000/svg">
<path fill-rule="evenodd" clip-rule="evenodd" d="M25 50C38.8071 50 50 38.8071 50 25C50 11.1929 38.8071 0 25 0C11.1929 0 0 11.1929 0 25C0 38.8071 11.1929 50 25 50Z" fill="#4252FF"/>
<path fill-rule="evenodd" clip-rule="evenodd" d="M25 37C31.6274 37 37 31.6274 37 25C37 18.3726 31.6274 13 25 13C18.3726 13 13 18.3726 13 25C13 31.6274 18.3726 37 25 37ZM31.7803 22.3021L23.1553 30.784C22.8624 31.072 22.3876 31.072 22.0947 30.7839L17.2197 25.9898C16.9268 25.7018 16.9268 25.2348 17.2197 24.9468L18.2803 23.9038C18.5732 23.6158 19.0481 23.6158 19.341 23.9038L22.625 27.1333L29.659 20.216C29.9519 19.928 30.4268 19.928 30.7197 20.216L31.7803 21.2591C32.0732 21.5471 32.0732 22.0141 31.7803 22.3021Z" fill="white"/>
</svg>
