<svg width="37" height="30" viewBox="0 0 37 30" fill="none" xmlns="http://www.w3.org/2000/svg">
<rect width="37" height="30" fill="#FF0000" fill-opacity="0.01"/>
<path fill-rule="evenodd" clip-rule="evenodd" d="M30.1981 12.6L32.1162 12.888C32.8044 13.0131 33.2952 13.5066 33.3002 14.0784V15.9312C33.2898 16.4994 32.8001 16.9877 32.1162 17.112L30.1981 17.4C29.5424 17.5421 29.0034 17.9201 28.7355 18.4257C28.4675 18.9313 28.5004 19.5086 28.8247 19.992L29.9258 21.24C30.3597 21.734 30.2843 22.4107 29.7482 22.8336L28.1498 24.12C27.6446 24.5086 26.8778 24.568 26.2909 24.264L24.7517 23.3712C24.1483 23.0772 23.4084 23.0334 22.7587 23.2532C22.109 23.473 21.6269 23.9302 21.4602 24.4848L21.0932 26.04C20.9399 26.5946 20.3377 26.9916 19.6368 27H17.3517C16.6509 26.9916 16.0486 26.5946 15.8954 26.04L15.5402 24.4848C15.365 23.9532 14.8987 23.5161 14.2752 23.2989C13.6516 23.0816 12.9396 23.1083 12.3434 23.3712L10.8042 24.264C10.1973 24.6103 9.37049 24.5493 8.85059 24.12L7.2522 22.8336C6.71611 22.4107 6.64069 21.734 7.0746 21.24L8.17571 20.0688C8.53833 19.5795 8.59236 18.9796 8.32126 18.4528C8.05016 17.926 7.48624 17.5352 6.80227 17.4L4.8842 17.112C4.19598 16.9869 3.70516 16.4934 3.7002 15.9216V14.0688C3.71062 13.5006 4.20025 13.0123 4.8842 12.888L6.80227 12.6C7.45794 12.4579 7.99704 12.0799 8.26494 11.5743C8.53284 11.0687 8.49995 10.4914 8.17571 10.008L7.0746 8.76C6.64069 8.26604 6.71611 7.58929 7.2522 7.1664L8.85059 5.88C9.37049 5.45067 10.1973 5.38973 10.8042 5.736L12.296 6.6288C12.896 6.907 13.6218 6.94205 14.2583 6.72357C14.8948 6.50509 15.3689 6.05814 15.5402 5.5152L15.8954 3.96C16.0497 3.40199 16.6583 3.00402 17.3636 3H19.6487C20.3495 3.00845 20.9517 3.40545 21.105 3.96L21.4602 5.5152C21.6251 6.04931 22.0649 6.5003 22.6679 6.7536C23.3195 6.96127 24.0525 6.91528 24.657 6.6288L26.1962 5.736C26.8031 5.38973 27.6299 5.45067 28.1498 5.88L29.7482 7.1664C30.2843 7.58929 30.3597 8.26604 29.9258 8.76L28.8247 9.9312C28.4621 10.4205 28.408 11.0204 28.6791 11.5472C28.9502 12.074 29.5141 12.4648 30.1981 12.6ZM18.5002 19.32C21.4428 19.32 23.8282 17.3859 23.8282 15C23.8282 12.6141 21.4428 10.68 18.5002 10.68C15.5576 10.68 13.1722 12.6141 13.1722 15C13.1722 17.3859 15.5576 19.32 18.5002 19.32Z" fill="#0E1D25"/>
<mask id="mask0_30_4583" style="mask-type:luminance" maskUnits="userSpaceOnUse" x="3" y="3" width="31" height="24">
<path fill-rule="evenodd" clip-rule="evenodd" d="M30.1981 12.6L32.1162 12.888C32.8044 13.0131 33.2952 13.5066 33.3002 14.0784V15.9312C33.2898 16.4994 32.8001 16.9877 32.1162 17.112L30.1981 17.4C29.5424 17.5421 29.0034 17.9201 28.7355 18.4257C28.4675 18.9313 28.5004 19.5086 28.8247 19.992L29.9258 21.24C30.3597 21.734 30.2843 22.4107 29.7482 22.8336L28.1498 24.12C27.6446 24.5086 26.8778 24.568 26.2909 24.264L24.7517 23.3712C24.1483 23.0772 23.4084 23.0334 22.7587 23.2532C22.109 23.473 21.6269 23.9302 21.4602 24.4848L21.0932 26.04C20.9399 26.5946 20.3377 26.9916 19.6368 27H17.3517C16.6509 26.9916 16.0486 26.5946 15.8954 26.04L15.5402 24.4848C15.365 23.9532 14.8987 23.5161 14.2752 23.2989C13.6516 23.0816 12.9396 23.1083 12.3434 23.3712L10.8042 24.264C10.1973 24.6103 9.37049 24.5493 8.85059 24.12L7.2522 22.8336C6.71611 22.4107 6.64069 21.734 7.0746 21.24L8.17571 20.0688C8.53833 19.5795 8.59236 18.9796 8.32126 18.4528C8.05016 17.926 7.48624 17.5352 6.80227 17.4L4.8842 17.112C4.19598 16.9869 3.70516 16.4934 3.7002 15.9216V14.0688C3.71062 13.5006 4.20025 13.0123 4.8842 12.888L6.80227 12.6C7.45794 12.4579 7.99704 12.0799 8.26494 11.5743C8.53284 11.0687 8.49995 10.4914 8.17571 10.008L7.0746 8.76C6.64069 8.26604 6.71611 7.58929 7.2522 7.1664L8.85059 5.88C9.37049 5.45067 10.1973 5.38973 10.8042 5.736L12.296 6.6288C12.896 6.907 13.6218 6.94205 14.2583 6.72357C14.8948 6.50509 15.3689 6.05814 15.5402 5.5152L15.8954 3.96C16.0497 3.40199 16.6583 3.00402 17.3636 3H19.6487C20.3495 3.00845 20.9517 3.40545 21.105 3.96L21.4602 5.5152C21.6251 6.04931 22.0649 6.5003 22.6679 6.7536C23.3195 6.96127 24.0525 6.91528 24.657 6.6288L26.1962 5.736C26.8031 5.38973 27.6299 5.45067 28.1498 5.88L29.7482 7.1664C30.2843 7.58929 30.3597 8.26604 29.9258 8.76L28.8247 9.9312C28.4621 10.4205 28.408 11.0204 28.6791 11.5472C28.9502 12.074 29.5141 12.4648 30.1981 12.6ZM18.5002 19.32C21.4428 19.32 23.8282 17.3859 23.8282 15C23.8282 12.6141 21.4428 10.68 18.5002 10.68C15.5576 10.68 13.1722 12.6141 13.1722 15C13.1722 17.3859 15.5576 19.32 18.5002 19.32Z" fill="white"/>
</mask>
<g mask="url(#mask0_30_4583)">
<rect width="37" height="30" fill="#BEC2CE"/>
</g>
</svg>
